<svg width="42" height="37" viewBox="0 0 42 37" fill="none" xmlns="http://www.w3.org/2000/svg">
<path d="M13.6411 5.77506C13.7405 5.83143 13.84 5.88779 13.9399 5.94416C13.9983 5.98003 14.0567 6.01077 14.1151 6.04664C14.3165 6.1645 14.5184 6.28236 14.7218 6.40535C14.7644 6.43097 14.8064 6.45659 14.8495 6.48221C14.9443 6.5437 15.0396 6.60007 15.1349 6.66156C15.2051 6.70256 15.2748 6.74868 15.345 6.78967C15.4377 6.84604 15.5305 6.90753 15.6237 6.96902C15.698 7.01514 15.7723 7.06125 15.8471 7.11249C15.9384 7.16886 16.0285 7.22525 16.1192 7.28674C16.2017 7.34311 16.2842 7.39436 16.3673 7.45073C16.5061 7.54297 16.6455 7.6352 16.7849 7.73257C16.8823 7.79918 16.9791 7.86577 17.077 7.93239C17.1605 7.98875 17.2445 8.04514 17.3281 8.10663C17.4152 8.16812 17.5018 8.2296 17.5894 8.29109C17.6735 8.34746 17.757 8.40895 17.841 8.47044C17.9317 8.53193 18.0224 8.59859 18.1126 8.6652C18.1925 8.72157 18.2725 8.77791 18.3529 8.8394C18.4718 8.92651 18.5917 9.01364 18.7111 9.10588C18.807 9.17762 18.9028 9.24937 18.9991 9.32111C19.116 9.40822 19.2328 9.49534 19.3501 9.58758C19.4249 9.64395 19.5003 9.70541 19.5751 9.76178C19.675 9.83864 19.7749 9.91554 19.8754 9.99753C19.9512 10.0539 20.0271 10.1154 20.1029 10.1769C20.209 10.2589 20.3156 10.346 20.4216 10.4331C20.4898 10.4843 20.5574 10.5407 20.6251 10.597C20.7619 10.7046 20.8987 10.8174 21.0355 10.9301C21.1713 10.8174 21.3066 10.7098 21.4424 10.597C21.5141 10.5407 21.5859 10.4792 21.6581 10.4228C21.7596 10.3408 21.8616 10.2588 21.9635 10.182C22.0424 10.1154 22.1214 10.0539 22.2003 9.99237C22.2961 9.91551 22.3924 9.8438 22.4883 9.76693C22.5667 9.70544 22.6456 9.64392 22.7245 9.58243C22.8331 9.50044 22.9423 9.41846 23.0509 9.33647C23.1626 9.24936 23.2748 9.16735 23.3866 9.08536C23.4957 9.00337 23.6054 8.92139 23.7145 8.8394C23.7986 8.77791 23.8821 8.72154 23.9656 8.66005C24.0522 8.59856 24.1388 8.53193 24.2254 8.47044C24.312 8.40895 24.3991 8.34748 24.4863 8.28598C24.5693 8.22449 24.6518 8.1681 24.7348 8.11174C24.8224 8.05024 24.9095 7.98877 24.9971 7.92728C25.0837 7.87091 25.1703 7.8094 25.2575 7.75303C25.4122 7.64542 25.567 7.54296 25.7207 7.44047C25.7965 7.38923 25.8724 7.33798 25.9482 7.28674C26.0425 7.22525 26.1358 7.16888 26.2295 7.10739C26.3008 7.06127 26.372 7.01514 26.4427 6.96902C26.5385 6.90753 26.6333 6.84604 26.7291 6.78967C26.7953 6.74868 26.8614 6.70771 26.928 6.66672C27.0269 6.60523 27.1253 6.5437 27.2242 6.48221C27.2498 6.46684 27.2754 6.4515 27.301 6.43612C27.5239 6.29777 27.7453 6.16965 27.9662 6.04154C28.02 6.01079 28.0738 5.98006 28.1281 5.94931C28.2306 5.88782 28.332 5.83143 28.434 5.77506C28.4827 5.74432 28.5314 5.71872 28.5801 5.6931C26.0194 3.42814 23.4737 1.51674 21.0355 -5.91278e-05C18.5969 1.51674 16.0511 3.42814 13.4905 5.6931C13.5407 5.71872 13.5909 5.74944 13.6411 5.77506Z" fill="white"/>
<path d="M36.2562 13.4736C36.1522 13.53 36.0471 13.5914 35.9421 13.6478C35.8883 13.6786 35.834 13.7093 35.7797 13.74C35.6767 13.7964 35.5731 13.8579 35.4691 13.9143C35.4174 13.945 35.3661 13.9758 35.3144 14.0065C35.0827 14.1398 34.8511 14.2781 34.618 14.4165C34.6011 14.4267 34.5847 14.437 34.5683 14.4472C34.4679 14.5087 34.3674 14.5702 34.267 14.6368C34.2024 14.6727 34.1378 14.7137 34.0727 14.7547C33.9769 14.8162 33.8806 14.8777 33.7843 14.9392C33.714 14.9802 33.6439 15.0262 33.5736 15.0724C33.4794 15.1339 33.3851 15.1954 33.2898 15.2569C33.2165 15.3081 33.1422 15.3542 33.0689 15.4054C32.9095 15.5079 32.7502 15.6156 32.5903 15.7232C32.5068 15.7795 32.4237 15.8359 32.3407 15.8974C32.2526 15.9589 32.1639 16.0204 32.0753 16.0819C31.9933 16.1382 31.9118 16.1946 31.8293 16.251C31.7422 16.3125 31.6541 16.3791 31.5665 16.4406C31.4809 16.5021 31.3953 16.5636 31.3097 16.6251C31.2257 16.6866 31.1411 16.748 31.0566 16.8095C30.9479 16.8915 30.8388 16.9684 30.7296 17.0504C30.6179 17.1375 30.5057 17.2195 30.394 17.3066C30.2849 17.3886 30.1762 17.4706 30.0676 17.5526C29.9882 17.6141 29.9098 17.6755 29.8303 17.737C29.735 17.8088 29.6392 17.8856 29.5434 17.9625C29.4639 18.024 29.3845 18.0855 29.3051 18.147C29.2262 18.2085 29.1472 18.2751 29.0688 18.3366C29.2298 18.5057 29.3912 18.6799 29.5526 18.8542C29.6028 18.9105 29.653 18.9617 29.7032 19.0181C29.8288 19.1513 29.9549 19.2897 30.0804 19.428C30.1398 19.4947 30.1998 19.5562 30.2592 19.6228C30.3817 19.7612 30.5047 19.8944 30.6272 20.0328C30.6805 20.0942 30.7338 20.1506 30.787 20.2121C30.9602 20.4068 31.1334 20.6016 31.3066 20.8014C31.4788 21.0013 31.65 21.196 31.8196 21.3958C31.8724 21.4573 31.9251 21.5188 31.9779 21.5803C32.0963 21.7186 32.2147 21.8621 32.332 22.0005C32.3899 22.0671 32.4478 22.1388 32.5052 22.2054C32.6246 22.3489 32.743 22.4924 32.8608 22.6359C32.909 22.6974 32.9582 22.7537 33.0064 22.8101C33.1688 23.0099 33.3313 23.2098 33.4917 23.4097C33.5147 23.4404 33.5373 23.466 33.5603 23.4968C33.6976 23.6659 33.835 23.8401 33.9708 24.0143C34.0241 24.0809 34.0763 24.1476 34.1286 24.2142C34.2362 24.3525 34.3433 24.4909 34.4494 24.6292C34.5047 24.6958 34.5596 24.7676 34.6144 24.8394C34.6826 24.9265 34.7502 25.0187 34.8183 25.1058C34.8219 25.1058 34.826 25.1007 34.8296 25.0956C34.9377 25.0085 35.0459 24.9213 35.1535 24.8394C35.2283 24.7779 35.3026 24.7215 35.3774 24.66C35.4794 24.5831 35.5814 24.5011 35.6833 24.4243C35.7566 24.3679 35.8299 24.3064 35.9032 24.2501C36.0251 24.1578 36.1461 24.0656 36.267 23.9733C36.3541 23.9118 36.4417 23.8452 36.5288 23.7786C36.6544 23.6864 36.7794 23.5941 36.9045 23.5019C36.9823 23.4455 37.0597 23.3892 37.1371 23.3328C37.2309 23.261 37.3236 23.1944 37.4164 23.1278C37.4989 23.0714 37.5814 23.01 37.6639 22.9536C37.753 22.8921 37.8417 22.8255 37.9314 22.764C38.0129 22.7076 38.0948 22.6513 38.1763 22.5949C38.2803 22.5232 38.3833 22.4514 38.4868 22.3848C38.6175 22.2977 38.7472 22.2055 38.8768 22.1235C38.9639 22.062 39.051 22.0056 39.1381 21.9492C39.2263 21.8929 39.3149 21.8314 39.4031 21.775C39.4804 21.7289 39.5578 21.6776 39.6347 21.6264C39.7254 21.57 39.8161 21.5137 39.9068 21.4573C39.9801 21.4112 40.0534 21.3651 40.1266 21.3189C40.2189 21.2626 40.3111 21.2062 40.4033 21.1498C40.4607 21.114 40.5176 21.0781 40.575 21.0422C40.76 20.9346 40.945 20.8219 41.1284 20.7143C41.192 20.6784 41.255 20.6425 41.318 20.6066C41.4154 20.5503 41.5123 20.4939 41.6091 20.4427C41.6711 20.4068 41.7331 20.3709 41.7951 20.3351C41.8638 20.2992 41.9319 20.2582 42.0001 20.2223C40.5238 18.1675 38.9024 16.1178 37.1484 14.1039C36.927 13.8528 36.7051 13.6017 36.4832 13.3557C36.4515 13.3711 36.4207 13.3865 36.3895 13.4019C36.3454 13.4275 36.3013 13.4531 36.2562 13.4736Z" fill="white"/>
<path d="M22.0887 11.5988C22.1379 11.6398 22.1866 11.6808 22.2353 11.7218C22.3619 11.8243 22.489 11.9319 22.6155 12.0395C22.6842 12.0959 22.7518 12.1574 22.8195 12.2137C22.9307 12.306 23.0414 12.4033 23.152 12.5007C23.2197 12.5571 23.2884 12.6185 23.356 12.6749C23.478 12.7825 23.5999 12.8902 23.7214 12.9978C23.7757 13.0439 23.8305 13.09 23.8848 13.1413C24.0565 13.295 24.2287 13.4487 24.4008 13.6024C24.4485 13.6486 24.4957 13.6895 24.5428 13.7357C24.673 13.8535 24.8026 13.9714 24.9322 14.0944C24.9958 14.1507 25.0593 14.2122 25.1229 14.2686C25.2402 14.3813 25.3576 14.4889 25.4744 14.6017C25.5369 14.6581 25.5994 14.7195 25.6619 14.7759C25.7988 14.9091 25.9351 15.0372 26.0714 15.1705C26.1108 15.2115 26.1508 15.2473 26.1903 15.2832C26.3655 15.4574 26.5403 15.6265 26.715 15.8007C26.7621 15.8469 26.8103 15.893 26.858 15.9443C26.9876 16.0724 27.1173 16.2005 27.2469 16.3337C27.3074 16.3901 27.3673 16.4516 27.4278 16.513C27.5497 16.6412 27.6717 16.7641 27.7937 16.8871C27.85 16.9486 27.9069 17.005 27.9638 17.0665C28.1165 17.2253 28.2697 17.3842 28.4219 17.543C28.445 17.5686 28.4675 17.5892 28.4906 17.6148C28.5034 17.6302 28.5167 17.6404 28.53 17.6558C28.6089 17.5943 28.6879 17.5276 28.7668 17.4662C28.8462 17.4047 28.9256 17.3432 29.0051 17.2817C29.1009 17.2048 29.1967 17.1279 29.292 17.0562C29.3715 16.9947 29.4498 16.9332 29.5293 16.8718C29.6379 16.7898 29.7466 16.7078 29.8557 16.6258C29.9674 16.5387 30.0796 16.4567 30.1913 16.3696C30.3005 16.2876 30.4096 16.2107 30.5183 16.1287C30.6028 16.0672 30.6874 16.0058 30.7714 15.9443C30.857 15.8828 30.9426 15.8213 31.0281 15.7598C31.1158 15.6983 31.2039 15.6316 31.291 15.5702C31.3735 15.5138 31.455 15.4574 31.537 15.4011C31.6256 15.3396 31.7143 15.2781 31.8024 15.2166C31.8854 15.1551 31.9685 15.0987 32.052 15.0424C32.2119 14.9347 32.3712 14.8271 32.5306 14.7246C32.6039 14.6734 32.6782 14.6273 32.7514 14.5761C32.8468 14.5146 32.941 14.453 33.0353 14.3916C33.1055 14.3454 33.1757 14.2993 33.2459 14.2583C33.3423 14.1969 33.4386 14.1354 33.5344 14.0739C33.5995 14.0329 33.6641 13.9919 33.7286 13.956C33.8291 13.8894 33.9295 13.8279 34.03 13.7664C34.0464 13.7562 34.0628 13.7459 34.0797 13.7357C34.3128 13.5973 34.5444 13.4589 34.7761 13.3257C34.8278 13.295 34.8791 13.2642 34.9308 13.2335C35.0348 13.1771 35.1383 13.1156 35.2413 13.0592C35.2957 13.0285 35.35 12.9978 35.4038 12.967C35.5088 12.9106 35.6139 12.8492 35.7179 12.7928C35.763 12.7723 35.8071 12.7467 35.8512 12.721C35.8824 12.7057 35.9132 12.6903 35.9444 12.6749C33.8373 10.3177 31.6851 8.17579 29.5426 6.28492C29.4939 6.31054 29.4452 6.33614 29.3965 6.36689C29.2946 6.42325 29.1931 6.47964 29.0906 6.54113C29.0363 6.57188 28.9825 6.60261 28.9287 6.63336C28.7078 6.76147 28.4865 6.88959 28.2636 7.02794C28.2379 7.04332 28.2123 7.05866 28.1867 7.07403C28.0878 7.13552 27.9894 7.19705 27.8905 7.25854C27.8239 7.29953 27.7578 7.3405 27.6917 7.38149C27.5959 7.43786 27.5011 7.49935 27.4052 7.56084C27.3345 7.60696 27.2633 7.65309 27.1921 7.69921C27.0983 7.7607 27.005 7.81707 26.9107 7.87856C26.8349 7.9298 26.7591 7.98105 26.6832 8.03229C26.5295 8.13478 26.3747 8.23724 26.22 8.34485C26.1329 8.40122 26.0463 8.46273 25.9597 8.5191C25.872 8.58059 25.7849 8.64207 25.6973 8.70356C25.6143 8.75992 25.5318 8.81631 25.4488 8.8778C25.3617 8.9393 25.2745 9.00077 25.1879 9.06226C25.1013 9.12375 25.0147 9.19038 24.9281 9.25187C24.8446 9.31336 24.7611 9.36973 24.6771 9.43122C24.5679 9.51321 24.4582 9.59519 24.3491 9.67718C24.2374 9.75917 24.1252 9.84118 24.0134 9.92829C23.9048 10.0103 23.7957 10.0923 23.687 10.1742C23.6081 10.2357 23.5292 10.2973 23.4508 10.3588C23.355 10.4356 23.2586 10.5073 23.1628 10.5842C23.0839 10.6457 23.005 10.7072 22.9261 10.7738C22.8241 10.8507 22.7221 10.9327 22.6206 11.0147C22.5484 11.071 22.4767 11.1325 22.4049 11.1889C22.2691 11.3016 22.1338 11.4092 21.998 11.5219C22.0283 11.5476 22.059 11.5732 22.0887 11.5988Z" fill="white"/>
<path d="M0.392006 20.2489C0.488343 20.3001 0.584688 20.3564 0.682051 20.4128C0.74508 20.4487 0.80912 20.4845 0.872661 20.5255C1.05457 20.628 1.23752 20.7356 1.42097 20.8484C1.47939 20.8842 1.53781 20.9201 1.59725 20.956C1.68897 21.0124 1.78069 21.0687 1.87293 21.1251C1.94621 21.1712 2.02051 21.2173 2.09379 21.2635C2.18398 21.3198 2.27468 21.3762 2.36487 21.4326C2.44225 21.4838 2.52013 21.5351 2.59802 21.5812C2.68564 21.6375 2.7738 21.699 2.86194 21.7554C2.94905 21.8117 3.03667 21.8681 3.12379 21.9296C3.25394 22.0116 3.38359 22.1038 3.51324 22.1909C3.61675 22.2576 3.72027 22.3293 3.82378 22.4011C3.90525 22.4574 3.98723 22.5138 4.06871 22.5702C4.15838 22.6317 4.24756 22.6983 4.33723 22.7598C4.41922 22.8161 4.50119 22.8776 4.58369 22.934C4.67696 23.0006 4.77024 23.0672 4.8635 23.1389C4.94088 23.1953 5.01825 23.2517 5.09562 23.308C5.22168 23.4003 5.34722 23.4925 5.47379 23.5848C5.55937 23.6514 5.64547 23.7129 5.73156 23.7795C5.85301 23.8717 5.97546 23.964 6.09742 24.0613C6.17019 24.1126 6.24348 24.174 6.31675 24.2304C6.41873 24.3073 6.52069 24.3893 6.62266 24.4662C6.69748 24.5277 6.7723 24.584 6.8466 24.6455C6.95473 24.7275 7.06285 24.8146 7.17098 24.9017C7.17456 24.9069 7.17816 24.912 7.18226 24.912C7.24939 24.8249 7.31703 24.7378 7.38518 24.6455C7.44052 24.5738 7.49585 24.502 7.55222 24.4303C7.65778 24.2919 7.76387 24.1587 7.86994 24.0203C7.92323 23.9537 7.97652 23.8871 8.03033 23.8205C8.16407 23.6462 8.29986 23.4771 8.43617 23.308C8.46076 23.2773 8.48486 23.2466 8.50945 23.2158C8.66933 23.016 8.83125 22.8161 8.99369 22.6214C9.04237 22.5599 9.09158 22.4984 9.14026 22.4421C9.25761 22.2986 9.37545 22.1551 9.49434 22.0116C9.55224 21.945 9.61017 21.8732 9.66858 21.8066C9.78593 21.6683 9.90378 21.5248 10.0222 21.3864C10.0749 21.3249 10.1277 21.2634 10.181 21.202C10.3506 21.0021 10.5218 20.8074 10.6939 20.6076C10.8666 20.4077 11.0393 20.213 11.2125 20.0183C11.2669 19.9568 11.3207 19.9004 11.375 19.8389C11.4964 19.7005 11.6184 19.5673 11.7398 19.4341C11.8003 19.3674 11.8608 19.3008 11.9212 19.2342C12.0458 19.0958 12.1698 18.9626 12.2943 18.8243C12.3455 18.773 12.3973 18.7167 12.449 18.6603C12.6099 18.4861 12.7708 18.3118 12.9317 18.1427C12.8518 18.0812 12.7719 18.0146 12.6924 17.9531C12.6145 17.8916 12.5377 17.8302 12.4608 17.7687C12.3619 17.6918 12.2635 17.6149 12.1651 17.5381C12.0883 17.4766 12.0119 17.4202 11.9356 17.3638C11.8213 17.2716 11.707 17.1845 11.5933 17.1025C11.4913 17.0256 11.3898 16.9488 11.2878 16.8719C11.1726 16.7848 11.0568 16.6977 10.9415 16.6157C10.8595 16.5542 10.7775 16.4927 10.696 16.4363C10.6079 16.3697 10.5192 16.3082 10.4311 16.2467C10.345 16.1852 10.2594 16.1238 10.1738 16.0623C10.0893 16.0008 10.0042 15.9444 9.91967 15.8829C9.83358 15.8214 9.74748 15.7651 9.6619 15.7036C9.57171 15.6421 9.48154 15.5806 9.39135 15.5191C9.24121 15.4166 9.09158 15.3141 8.94195 15.2168C8.86457 15.1655 8.78616 15.1143 8.70827 15.063C8.61552 15.0015 8.52276 14.94 8.43001 14.8837C8.35827 14.8376 8.28551 14.7863 8.21325 14.7402C8.11897 14.6838 8.02418 14.6223 7.92989 14.5609C7.86276 14.5199 7.79512 14.4788 7.728 14.4378C7.63012 14.3764 7.53172 14.3149 7.43385 14.2585C7.40669 14.238 7.37902 14.2226 7.35135 14.2073C7.13101 14.074 6.91168 13.9408 6.69287 13.8178C6.63855 13.782 6.58373 13.7512 6.52941 13.7204C6.42692 13.6641 6.32494 13.6026 6.22348 13.5462C6.16711 13.5155 6.11128 13.4847 6.05593 13.454C5.95242 13.3976 5.84891 13.3361 5.7454 13.2798C5.69877 13.2593 5.65265 13.2336 5.60653 13.208C5.57681 13.1926 5.54708 13.1772 5.51736 13.1619C5.29496 13.4078 5.07307 13.659 4.85272 13.9101C3.09815 15.9239 1.47683 17.9736 0 20.0285C0.0676411 20.0643 0.136307 20.1053 0.204973 20.1412C0.266977 20.1771 0.329489 20.213 0.392006 20.2489Z" fill="white"/>
<path d="M26.7882 29.6389C26.735 29.5723 26.6811 29.5005 26.6268 29.4339C26.4936 29.2648 26.3588 29.0957 26.2235 28.9266C26.1984 28.8959 26.1733 28.8651 26.1487 28.8344C25.9889 28.6345 25.8269 28.4347 25.6645 28.2348C25.6158 28.1784 25.5661 28.117 25.5174 28.0555C25.4001 27.9171 25.2822 27.7736 25.1638 27.6302C25.1059 27.5635 25.048 27.4918 24.9901 27.4201C24.8722 27.2817 24.7544 27.1433 24.6355 27.005C24.5827 26.9435 24.5305 26.882 24.4772 26.8205C24.3076 26.6207 24.1364 26.4208 23.9642 26.2261C23.7915 26.0262 23.6183 25.8315 23.4451 25.6368C23.3913 25.5753 23.3375 25.5138 23.2842 25.4574C23.1617 25.3191 23.0398 25.1807 22.9173 25.0475C22.8579 24.9809 22.7974 24.9143 22.7375 24.8477C22.6129 24.7144 22.4874 24.576 22.3624 24.4428C22.3111 24.3864 22.2604 24.3301 22.2091 24.2737C22.0354 24.0892 21.8612 23.9048 21.687 23.7203C21.6629 23.6947 21.6393 23.6691 21.6152 23.6434C21.4641 23.4846 21.3129 23.3257 21.1612 23.1669C21.1192 23.1259 21.0772 23.0849 21.0357 23.0388C20.9931 23.0849 20.9511 23.1259 20.9086 23.172C20.7595 23.3257 20.6109 23.4794 20.4618 23.6383C20.4356 23.6639 20.4095 23.6896 20.3833 23.7203C20.2091 23.9048 20.0359 24.0892 19.8622 24.2737C19.8105 24.3301 19.7587 24.3864 19.7069 24.4428C19.5824 24.576 19.4584 24.7144 19.3344 24.8477C19.2739 24.9143 19.2135 24.9809 19.1535 25.0475C19.031 25.1807 18.9091 25.3191 18.7871 25.4523C18.7338 25.5138 18.6795 25.5753 18.6262 25.6368C18.4525 25.8315 18.2798 26.0262 18.1071 26.2261C17.9344 26.4208 17.7638 26.6207 17.5937 26.8205C17.5409 26.882 17.4886 26.9435 17.4364 27.005C17.317 27.1433 17.1981 27.2817 17.0802 27.4252C17.0233 27.4918 16.9659 27.5584 16.9091 27.6302C16.7886 27.7736 16.6698 27.9171 16.5514 28.0606C16.5032 28.117 16.455 28.1784 16.4074 28.2348C16.2444 28.4347 16.082 28.6345 15.9216 28.8344C15.8991 28.86 15.877 28.8907 15.8539 28.9163C15.7156 29.0906 15.5783 29.2648 15.4425 29.4339C15.3897 29.5005 15.3379 29.5671 15.2857 29.6337C15.2575 29.6696 15.2298 29.7055 15.2021 29.7414C15.2411 29.7824 15.2795 29.8233 15.3185 29.8643C15.4712 30.0232 15.6239 30.1821 15.7761 30.3409C15.7986 30.3666 15.8217 30.387 15.8447 30.4127C16.0195 30.5971 16.1937 30.7867 16.3679 30.9712C16.4187 31.0276 16.4689 31.0788 16.5196 31.1352C16.6457 31.2736 16.7712 31.4068 16.8968 31.5452C16.9557 31.6118 17.0151 31.6784 17.0751 31.7399C17.1976 31.8782 17.32 32.0166 17.443 32.1498C17.4968 32.2113 17.5496 32.2728 17.6034 32.3292C17.7766 32.5239 17.9493 32.7186 18.122 32.9185C18.2947 33.1183 18.4653 33.313 18.6349 33.5129C18.6882 33.5744 18.7415 33.6359 18.7943 33.7025C18.9127 33.8408 19.031 33.9792 19.1479 34.1175C19.2058 34.1893 19.2642 34.2559 19.3216 34.3225C19.4405 34.466 19.5588 34.6095 19.6767 34.753C19.7254 34.8145 19.7741 34.8708 19.8222 34.9323C19.9852 35.127 20.1471 35.3269 20.307 35.5267C20.3316 35.5575 20.3552 35.5883 20.3798 35.619C20.5166 35.7881 20.6519 35.9572 20.7861 36.1314C20.8394 36.198 20.8927 36.2647 20.946 36.3364C20.9762 36.3723 21.0059 36.4081 21.0357 36.4491C21.0654 36.4081 21.0956 36.3722 21.1259 36.3312C21.1787 36.2646 21.2314 36.198 21.2852 36.1314C21.42 35.9572 21.5558 35.7881 21.6926 35.619C21.7167 35.5883 21.7403 35.5575 21.7638 35.5267C21.9242 35.3269 22.0856 35.127 22.2486 34.9323C22.2968 34.8708 22.346 34.8145 22.3946 34.753C22.5125 34.6095 22.6309 34.466 22.7498 34.3225C22.8077 34.2559 22.8651 34.1893 22.923 34.1175C23.0403 33.9792 23.1582 33.8408 23.2765 33.7025C23.3298 33.6359 23.3826 33.5744 23.4359 33.5129C23.606 33.313 23.7767 33.1183 23.9489 32.9185C24.1215 32.7186 24.2947 32.5239 24.4679 32.3292C24.5212 32.2728 24.5745 32.2113 24.6278 32.1498C24.7508 32.0166 24.8733 31.8782 24.9963 31.7399C25.0557 31.6784 25.1157 31.6118 25.1746 31.5452C25.3001 31.4068 25.4257 31.2736 25.5512 31.1352C25.602 31.0788 25.6522 31.0276 25.7029 30.9712C25.8771 30.7867 26.0519 30.5971 26.2261 30.4127C26.2492 30.387 26.2722 30.3666 26.2948 30.3409C26.4475 30.1821 26.5997 30.0232 26.7524 29.8643C26.7913 29.8233 26.8308 29.7824 26.8692 29.7414C26.8426 29.7106 26.8154 29.6748 26.7882 29.6389Z" fill="white"/>
<path d="M6.53078 12.7928C6.63429 12.8492 6.73729 12.9106 6.84131 12.967C6.89666 12.9978 6.95249 13.0285 7.00886 13.0592C7.11032 13.1156 7.2123 13.1771 7.31479 13.2335C7.36911 13.2642 7.42393 13.295 7.47825 13.3309C7.69706 13.4538 7.91639 13.5871 8.13673 13.7203C8.1644 13.7357 8.19207 13.751 8.21923 13.7715C8.3171 13.8279 8.4155 13.8894 8.51338 13.9509C8.5805 13.9919 8.64814 14.0329 8.71527 14.0739C8.80956 14.1354 8.90435 14.1969 8.99863 14.2532C9.07089 14.2994 9.14365 14.3506 9.21539 14.3967C9.30814 14.4531 9.4009 14.5146 9.49365 14.5761C9.57154 14.6273 9.64995 14.6785 9.72732 14.7298C9.87695 14.8272 10.0266 14.9296 10.1767 15.0321C10.2669 15.0936 10.3571 15.1551 10.4473 15.2166C10.5329 15.2781 10.619 15.3345 10.705 15.396C10.7896 15.4574 10.8747 15.5138 10.9592 15.5753C11.0448 15.6368 11.1304 15.6983 11.2165 15.7598C11.3046 15.8213 11.3932 15.8828 11.4814 15.9494C11.5629 16.0057 11.6448 16.0672 11.7268 16.1287C11.8421 16.2107 11.9579 16.2978 12.0732 16.3849C12.1752 16.4618 12.2767 16.5387 12.3786 16.6155C12.4924 16.6975 12.6067 16.7846 12.721 16.8769C12.7973 16.9332 12.8737 16.9896 12.9505 17.0511C13.0489 17.128 13.1473 17.2048 13.2462 17.2817C13.3231 17.3432 13.3999 17.4047 13.4778 17.4662C13.5578 17.5276 13.6377 17.5943 13.7176 17.6558C13.7305 17.6455 13.7427 17.6302 13.7555 17.6148C13.7817 17.5892 13.8078 17.5636 13.8334 17.5328C13.9826 17.3791 14.1317 17.2202 14.2813 17.0665C14.3402 17.005 14.3992 16.9435 14.4586 16.882C14.5775 16.7641 14.6964 16.6411 14.8158 16.5182C14.8783 16.4567 14.9408 16.3901 15.0038 16.3286C15.1299 16.2005 15.256 16.0775 15.382 15.9494C15.4333 15.8981 15.484 15.8469 15.5347 15.7956C15.7079 15.6265 15.8811 15.4574 16.0543 15.2883C16.0989 15.2473 16.143 15.2012 16.1871 15.1602C16.3182 15.0321 16.4499 14.904 16.5821 14.781C16.6472 14.7195 16.7128 14.658 16.7779 14.5965C16.8916 14.4889 17.0054 14.3813 17.1192 14.2737C17.1858 14.2122 17.2529 14.1507 17.319 14.0893C17.444 13.9714 17.5686 13.8586 17.6931 13.7459C17.7453 13.6998 17.7971 13.6486 17.8489 13.6024C18.019 13.4487 18.1891 13.295 18.3598 13.1413C18.4187 13.09 18.4781 13.0388 18.5381 12.9875C18.6539 12.885 18.7702 12.7825 18.8865 12.6801C18.9578 12.6186 19.03 12.557 19.1013 12.4956C19.2078 12.4033 19.3144 12.3111 19.421 12.2189C19.4927 12.1574 19.564 12.0959 19.6357 12.0344C19.7556 11.9319 19.8761 11.8345 19.996 11.7321C20.0513 11.6859 20.1061 11.6398 20.161 11.5937C20.1907 11.5732 20.2199 11.5476 20.2496 11.5219C20.1128 11.4092 19.976 11.2965 19.8392 11.1889C19.7715 11.1325 19.7039 11.0762 19.6357 11.0249C19.5296 10.9378 19.4231 10.8507 19.317 10.7687C19.2412 10.7072 19.1653 10.6457 19.0895 10.5893C18.989 10.5074 18.8891 10.4305 18.7892 10.3536C18.7144 10.2972 18.639 10.2358 18.5642 10.1794C18.4469 10.0872 18.33 10 18.2132 9.91293C18.1169 9.84119 18.021 9.76944 17.9252 9.6977C17.8058 9.60546 17.6859 9.51833 17.567 9.43122C17.4866 9.36973 17.4066 9.31339 17.3267 9.25702C17.2365 9.19041 17.1458 9.12375 17.0551 9.06226C16.9711 9.00077 16.8875 8.93928 16.8035 8.88291C16.7159 8.82142 16.6293 8.75994 16.5422 8.69845C16.4586 8.63696 16.3746 8.58057 16.2911 8.52421C16.1932 8.45759 16.0964 8.391 15.999 8.32439C15.8596 8.22702 15.7202 8.13479 15.5813 8.04255C15.4983 7.98618 15.4158 7.93493 15.3333 7.87856C15.2426 7.81707 15.1524 7.76068 15.0612 7.70431C14.9864 7.65307 14.9121 7.60696 14.8378 7.56084C14.7445 7.49935 14.6518 7.43786 14.5591 7.38149C14.4888 7.3405 14.4192 7.29438 14.3489 7.25338C14.2536 7.19189 14.1583 7.13552 14.0635 7.07403C14.0205 7.04841 13.9785 7.02279 13.9359 6.99717C13.7325 6.87418 13.5306 6.75632 13.3292 6.63846C13.2708 6.60259 13.2124 6.57185 13.154 6.53598C13.054 6.47961 12.9546 6.42325 12.8552 6.36689C12.805 6.34126 12.7548 6.31054 12.7046 6.28492C10.5621 8.17579 8.41037 10.3177 6.30273 12.6749C6.33246 12.6903 6.36219 12.7057 6.39191 12.721C6.43803 12.7467 6.48415 12.7723 6.53078 12.7928Z" fill="white"/>
</svg>
